<svg width="1675" height="1867" xmlns="http://www.w3.org/2000/svg" xmlns:xlink="http://www.w3.org/1999/xlink" xml:space="preserve" overflow="hidden"><g transform="translate(-1139 -384)"><path d="M1889.23 702.695C1844.82 725.929 1827.65 780.764 1850.88 825.173 1874.12 869.583 1928.95 886.75 1973.36 863.517 2017.77 840.283 2034.94 785.448 2011.71 741.038 1988.47 696.628 1933.64 679.462 1889.23 702.695ZM1390.52 963.599C1346.11 986.833 1328.94 1041.67 1352.18 1086.08 1375.41 1130.49 1430.24 1147.65 1474.65 1124.42 1519.06 1101.19 1536.23 1046.35 1513 1001.94 1489.76 957.533 1434.93 940.366 1390.52 963.599ZM1468.98 506.498C1345.93 570.872 1309.68 744.431 1388.01 894.151L1833.61 661.03C1755.28 511.31 1592.03 442.123 1468.98 506.498ZM1421.89 416.474C1585.8 330.722 1803.26 422.884 1907.6 622.323L2003.97 571.903 2024.5 563.668C2079.26 547.911 2138.03 562.197 2179.43 599.834L2191.08 612.443 2798.05 1508.93 2807.23 1531.81C2825.61 1595.69 2803.1 1665.04 2750.33 1705.89L2740.34 1712.29 2402.44 1889.07 2417.46 1844.48C2657.65 1054.78 1920.51 997.117 1991.63 1505.52 1614.54 1157.19 1241.57 1795.62 2027.26 2048.62L2072.46 2061.71 1734.55 2238.48 1723.6 2243.04C1659.95 2263.09 1590.14 2242.04 1548.14 2190.51L1534.58 2169.92 1144.25 1160.1 1140.53 1143.34C1133.22 1087.87 1155 1031.45 1199.17 995.446L1217.64 983.278 1314.02 932.858C1209.68 733.419 1257.97 502.226 1421.89 416.474Z" fill-rule="evenodd"/></g></svg>